<svg xmlns="http://www.w3.org/2000/svg" xmlns:xlink="http://www.w3.org/1999/xlink" width="500" zoomAndPan="magnify" viewBox="0 0 375 374.999991" height="500" preserveAspectRatio="xMidYMid meet" version="1.0"><defs><g/></defs><g fill="#00000" fill-opacity="1"><g transform="translate(2.490464, 270.813676)"><g><path d="M 74.6875 -172.359375 C 83.851562 -172.359375 92.8125 -171.023438 101.5625 -168.359375 C 110.320312 -165.691406 116.820312 -163.054688 121.0625 -160.453125 L 127.21875 -156.359375 L 111.625 -125.578125 C 110.394531 -126.398438 108.679688 -127.457031 106.484375 -128.75 C 104.296875 -130.050781 100.191406 -131.796875 94.171875 -133.984375 C 88.160156 -136.171875 82.554688 -137.265625 77.359375 -137.265625 C 70.929688 -137.265625 65.972656 -135.894531 62.484375 -133.15625 C 58.992188 -130.425781 57.25 -126.738281 57.25 -122.09375 C 57.25 -119.757812 58.066406 -117.597656 59.703125 -115.609375 C 61.347656 -113.628906 64.15625 -111.507812 68.125 -109.25 C 72.09375 -107 75.578125 -105.1875 78.578125 -103.8125 C 81.585938 -102.445312 86.242188 -100.398438 92.546875 -97.671875 C 103.484375 -93.015625 112.816406 -86.6875 120.546875 -78.6875 C 128.273438 -70.6875 132.140625 -61.625 132.140625 -51.5 C 132.140625 -41.789062 130.394531 -33.3125 126.90625 -26.0625 C 123.414062 -18.8125 118.628906 -13.132812 112.546875 -9.03125 C 106.460938 -4.925781 99.722656 -1.882812 92.328125 0.09375 C 84.941406 2.082031 76.941406 3.078125 68.328125 3.078125 C 60.941406 3.078125 53.691406 2.320312 46.578125 0.8125 C 39.460938 -0.6875 33.507812 -2.5625 28.71875 -4.8125 C 23.9375 -7.070312 19.628906 -9.296875 15.796875 -11.484375 C 11.960938 -13.679688 9.160156 -15.53125 7.390625 -17.03125 L 4.71875 -19.28125 L 24 -51.703125 C 25.644531 -50.335938 27.90625 -48.59375 30.78125 -46.46875 C 33.65625 -44.351562 38.75 -41.515625 46.0625 -37.953125 C 53.382812 -34.398438 59.847656 -32.625 65.453125 -32.625 C 81.734375 -32.625 89.875 -38.164062 89.875 -49.25 C 89.875 -51.570312 89.289062 -53.722656 88.125 -55.703125 C 86.96875 -57.691406 84.914062 -59.675781 81.96875 -61.65625 C 79.03125 -63.644531 76.429688 -65.21875 74.171875 -66.375 C 71.921875 -67.539062 68.226562 -69.316406 63.09375 -71.703125 C 57.96875 -74.097656 54.171875 -75.914062 51.703125 -77.15625 C 41.441406 -82.21875 33.507812 -88.539062 27.90625 -96.125 C 22.300781 -103.71875 19.5 -111.894531 19.5 -120.65625 C 19.5 -135.832031 25.101562 -148.242188 36.3125 -157.890625 C 47.53125 -167.535156 60.320312 -172.359375 74.6875 -172.359375 Z M 74.6875 -172.359375 "/></g></g></g><g fill="#000000" fill-opacity="1"><g transform="translate(130.117897, 270.813676)"><g><path d="M 142.1875 0 L 115.109375 -95 L 88.03125 0 L 45.140625 0 L -3.078125 -169.28125 L 39.8125 -169.28125 L 68.734375 -53.140625 L 69.765625 -53.140625 L 100.546875 -169.28125 L 129.671875 -169.28125 L 160.453125 -53.140625 L 161.484375 -53.140625 L 190.40625 -169.28125 L 233.09375 -169.28125 L 184.875 0 Z M 142.1875 0 "/></g></g></g></svg>